<?xml version="1.0" encoding="iso-8859-1"?>
<!-- Generator: Adobe Illustrator 19.0.0, SVG Export Plug-In . SVG Version: 6.00 Build 0)  -->
<svg xmlns="http://www.w3.org/2000/svg" xmlns:xlink="http://www.w3.org/1999/xlink" version="1.1" id="Capa_1" x="0px" y="0px" viewBox="0 0 512 512" style="enable-background:new 0 0 512 512;" xml:space="preserve" width="512px" height="512px">
<g>
	<g>
		<path d="M504.348,90.259c-32.986-39.647-80.211-50.78-124.108-16.585c-2.153-13.552-7.715-26.51-16.636-38.483l-24.108,17.961    c19.34,25.956,10.395,52.143,2.722,66.211C286.814,90.725,151.282,73.92,88.461,240.647    C63.07,308.034,14.309,327.953,3.199,356.781c-28.887,74.954,143.057,180.777,305.792,76.21    c146.054-93.853,126.758-240.046,58.345-297.042c2.358-4.126,4.859-9.102,7.087-14.785C422.3,163.151,472.665,151.116,512,99.458    L504.348,90.259z" fill="#FFFFFF"/>
	</g>
</g>
<g>
</g>
<g>
</g>
<g>
</g>
<g>
</g>
<g>
</g>
<g>
</g>
<g>
</g>
<g>
</g>
<g>
</g>
<g>
</g>
<g>
</g>
<g>
</g>
<g>
</g>
<g>
</g>
<g>
</g>
</svg>
