<?xml version="1.0" encoding="utf-8"?>
<!-- Generator: Adobe Illustrator 22.1.0, SVG Export Plug-In . SVG Version: 6.00 Build 0)  -->
<svg version="1.1" id="Capa_1" xmlns="http://www.w3.org/2000/svg" xmlns:xlink="http://www.w3.org/1999/xlink" x="0px" y="0px"
	 viewBox="0 0 512 512" style="enable-background:new 0 0 512 512;" xml:space="preserve">
<style type="text/css">
	.st0{fill:#BB0502;}
</style>
<g>
	<g>
		<path class="st0" d="M504.3,90.3c-33-39.6-80.2-50.8-124.1-16.6c-2.2-13.6-7.7-26.5-16.6-38.5l-24.1,18
			c19.3,26,10.4,52.1,2.7,66.2C286.8,90.7,151.3,73.9,88.5,240.6C63.1,308,14.3,328,3.2,356.8c-28.9,75,143.1,180.8,305.8,76.2
			c146.1-93.9,126.8-240,58.3-297c2.4-4.1,4.9-9.1,7.1-14.8c47.9,42,98.2,30,137.6-21.7L504.3,90.3z"/>
	</g>
</g>
</svg>
